<svg width="121" height="20" viewBox="0 0 121 20" xmlns="http://www.w3.org/2000/svg"><title>bluehost-logo-white@2x</title><path d="M34.727 6.929c2.813 0 5.525 1.9 5.525 6.485 0 4.743-3.042 6.543-6.315 6.543-1.837 0-3.545-.571-4.808-1.3V.057h1.407V8.53a6.333 6.333 0 0 1 4.19-1.6zm-.876 11.785c2.584 0 4.995-1.514 4.995-5.271-.014-3.329-1.866-5.229-4.248-5.229-1.608 0-3.072.872-4.062 1.957v7.715c1.162.585 2.296.828 3.315.828zM42.721.043h1.35v19.7h-1.35V.043zM56.07 15.87V7.13h1.407v12.614h-1.407V17.3c-1.105 1.557-2.885 2.629-4.808 2.629-2.01 0-3.918-1.129-3.918-4.972V7.13h1.406v7.685c0 3 1.478 3.815 2.957 3.815 1.665 0 3.186-1.029 4.363-2.758zm10.32-8.9c3.401.086 5.726 2.8 5.281 6.786H61.51c-.015 2.343 1.65 4.829 4.98 4.943 1.478.057 2.856-.386 3.961-.971l.488 1.171c-1.105.6-2.684 1.157-4.52 1.086-4.25-.129-6.43-3.457-6.287-7 .143-3.972 3.1-6.129 6.257-6.015zM61.565 12.6h8.798c.058-2.2-1.478-4.286-4.09-4.371-2.54-.086-4.536 1.8-4.708 4.371zm19.333-5.657c2.54 0 4.033 1.9 4.019 4.714v8.086h-1.393v-7.786c0-2.728-1.406-3.7-2.927-3.714-1.838-.014-3.488 1.414-4.35 2.843v8.657h-1.406V.057h1.407V9.6c1.047-1.571 2.727-2.657 4.65-2.657zm12.415 0c3.258 0 6.1 2.4 6.1 6.486 0 4.171-2.842 6.514-6.1 6.514-3.646 0-6.1-2.914-6.1-6.514 0-3.829 2.713-6.486 6.1-6.486zm0 11.686c2.942 0 4.693-2.429 4.693-5.215 0-2.8-1.736-5.185-4.693-5.185-3.029 0-4.68 2.385-4.68 5.185 0 2.786 1.637 5.215 4.68 5.215zm13.348-5.643c3.043 1.2 3.703 2.557 3.703 3.685 0 1.986-1.852 3.229-4.32 3.229-1.393 0-2.756-.4-4.02-1.143l.604-1.2c1.047.714 2.239 1.072 3.373 1.072 1.32 0 2.97-.543 2.956-1.872 0-1.128-1.22-2.014-3.157-2.771-2.153-.857-4.033-1.643-4.033-3.657 0-2.015 1.894-3.358 4.391-3.358 1.307 0 2.498.386 3.517.915l-.531 1.1c-.804-.415-1.809-.743-2.943-.743-2.095 0-3.042 1.014-3.042 2.086 0 1.357 1.55 1.857 3.502 2.657zm13.836 5.157l.402 1.228c-.847.315-1.809.572-2.814.558-2.282 0-4.09-1.386-4.09-4.629V8.314h-2.268V7.13h2.268V2.9h1.406v4.243h4.191v1.186h-4.19v6.885c0 2.029.86 3.357 2.712 3.415.79.042 1.636-.143 2.383-.486zM0 .043h5.55v5.551H0V.044zm7.16 0h5.55v5.551H7.16V.044zm7.173 0h5.551v5.551h-5.55V.044zM0 7.232h5.55v5.55H0v-5.55zm7.16 0h5.55v5.55H7.16v-5.55zm7.173 0h5.551v5.55h-5.55v-5.55zM0 14.42h5.55v5.551H0v-5.55zm7.16 0h5.55v5.551H7.16v-5.55zm7.173 0h5.551v5.551h-5.55v-5.55z" fill="#FFF" fill-rule="nonzero"/></svg>